<svg width="80" height="80" viewBox="0 0 80 80" fill="none" xmlns="http://www.w3.org/2000/svg">
<path id="moon" d="M36.6699 79.9119C31.4316 79.3666 26.787 78.0089 22.2005 75.6824C10.2487 69.62 2.2556 58.368 0.278017 44.8219C-0.0586894 42.5156 -0.0974612 37.1342 0.205054 34.6951C0.91808 28.9462 2.77225 23.5407 5.77909 18.4451C9.96147 11.3573 17.2521 5.0274 24.8763 1.86427C26.9748 0.993689 30.0635 0.00370949 30.6928 3.45331e-05C31.8039 -0.00645138 32.9236 0.901471 33.2347 2.06103C33.474 2.95302 33.2401 3.58024 32.0842 5.14562C30.0908 7.84526 28.8293 10.2538 27.8319 13.2639C23.0045 27.8339 29.4789 43.4711 43.1194 50.1864C49.2606 53.2098 56.5566 54.0316 63.2624 52.4553C67.1758 51.5353 71.2552 49.5478 74.8293 46.8197C76.3269 45.6766 76.6362 45.5285 77.5252 45.5285C78.7694 45.5285 80 46.6957 80 47.8759C80 49.1272 77.9919 54.9236 76.5979 57.6963C73.1245 64.6049 68.0499 70.0844 61.3071 74.2074C56.7529 76.992 51.4154 78.8876 45.8991 79.6795C43.9039 79.9659 38.4967 80.1021 36.6699 79.9119ZM45.1507 74.3288C56.4362 72.7591 65.8435 66.3461 71.6972 56.2319C72.0634 55.5992 72.3317 55.0499 72.2933 55.0114C72.2549 54.9729 71.6327 55.1957 70.9106 55.5065C65.6742 57.7604 60.9882 58.6714 55.4411 58.5139C52.1708 58.4211 50.4987 58.1953 47.5574 57.4494C37.7509 54.9627 29.2532 48.0238 24.7866 38.8558C22.2913 33.734 21.1715 28.833 21.1765 23.0562C21.1809 18.0397 22.0611 13.6221 23.9289 9.24212L24.4692 7.97516L23.4131 8.55454C15.6788 12.7973 9.48596 20.5431 6.90674 29.1999C5.2219 34.8549 5.01532 41.205 6.32431 47.1034C8.29439 55.9806 13.8252 63.8665 21.7346 69.0757C23.5339 70.2607 27.3747 72.1021 29.5525 72.8238C31.6536 73.5201 33.8293 74.0266 36.0442 74.3351C38.175 74.6318 42.9963 74.6285 45.1507 74.3288Z" fill="#051010"/>
</svg>
