<svg width="64" height="64" viewBox="0 0 64 64" fill="none" xmlns="http://www.w3.org/2000/svg">
<g id="pinterest-svgrepo-com 1" clip-path="url(#clip0_2_143)">
<g id="PINTERESTCOLOR" filter="url(#filter0_d_2_143)">
<path d="M50.6273 6.5584C46.2219 2.32926 40.1252 0 33.4606 0C23.2801 0 17.0185 4.17314 13.5585 7.67378C9.29426 11.9879 6.84912 17.7163 6.84912 23.3903C6.84912 30.5145 9.82901 35.9825 14.8192 38.0168C15.1542 38.154 15.4913 38.2231 15.8218 38.2231C16.8745 38.2231 17.7087 37.5343 17.9977 36.4294C18.1662 35.7955 18.5564 34.2316 18.7262 33.5528C19.0894 32.2121 18.7959 31.5672 18.0037 30.6336C16.5604 28.9259 15.8883 26.9065 15.8883 24.2783C15.8883 16.4719 21.7011 8.17541 32.4745 8.17541C41.0228 8.17541 46.3328 13.0339 46.3328 20.8547C46.3328 25.79 45.2698 30.3605 43.3389 33.7249C41.9971 36.0626 39.6377 38.8493 36.0157 38.8493C34.4495 38.8493 33.0425 38.2059 32.1547 37.0841C31.3161 36.0238 31.0396 34.654 31.377 33.2264C31.758 31.6134 32.2776 29.9309 32.7805 28.3044C33.6976 25.3336 34.5646 22.5277 34.5646 20.2891C34.5646 16.4601 32.2106 13.8872 28.7075 13.8872C24.2554 13.8872 20.7675 18.4089 20.7675 24.1815C20.7675 27.0125 21.5199 29.13 21.8606 29.943C21.2997 32.3193 17.9664 46.4468 17.3342 49.1108C16.9685 50.666 14.7663 62.949 18.4114 63.9284C22.5069 65.0288 26.1678 53.066 26.5404 51.7142C26.8424 50.6148 27.8991 46.4577 28.5466 43.9023C30.5237 45.8067 33.7071 47.0942 36.8046 47.0942C42.644 47.0942 47.8955 44.4664 51.5919 39.6955C55.1768 35.068 57.1512 28.6182 57.1512 21.5352C57.1509 15.9979 54.7729 10.5389 50.6273 6.5584Z" fill="#E4FF1A"/>
</g>
</g>
<defs>
<filter id="filter0_d_2_143" x="2.84912" y="0" width="58.3021" height="71.9998" filterUnits="userSpaceOnUse" color-interpolation-filters="sRGB">
<feFlood flood-opacity="0" result="BackgroundImageFix"/>
<feColorMatrix in="SourceAlpha" type="matrix" values="0 0 0 0 0 0 0 0 0 0 0 0 0 0 0 0 0 0 127 0" result="hardAlpha"/>
<feOffset dy="4"/>
<feGaussianBlur stdDeviation="2"/>
<feComposite in2="hardAlpha" operator="out"/>
<feColorMatrix type="matrix" values="0 0 0 0 0 0 0 0 0 0 0 0 0 0 0 0 0 0 0.25 0"/>
<feBlend mode="normal" in2="BackgroundImageFix" result="effect1_dropShadow_2_143"/>
<feBlend mode="normal" in="SourceGraphic" in2="effect1_dropShadow_2_143" result="shape"/>
</filter>
<clipPath id="clip0_2_143">
<rect width="64" height="64" fill="white"/>
</clipPath>
</defs>
</svg>
