<svg width="78" height="79" viewBox="0 0 78 79" fill="none" xmlns="http://www.w3.org/2000/svg">
<g id="sun">
<path id="path1" d="M37.8375 77.8247C37.253 77.552 36.7717 77.0879 36.4352 76.4724C36.2029 76.0474 36.1616 75.453 36.119 71.9174C36.055 66.6087 36.2245 65.8404 37.6166 65.1304C38.7353 64.5597 40.239 64.8957 40.934 65.8716C41.4848 66.645 41.5809 67.6213 41.5291 71.9174C41.4819 75.8388 41.4677 76.0054 41.1305 76.5932C40.4563 77.769 38.9364 78.3374 37.8375 77.8247ZM11.9965 67.0898C10.5053 66.3518 10.1146 64.6193 11.1141 63.1772C11.3371 62.8556 12.835 61.2925 14.4429 59.7037C16.9095 57.2664 17.4684 56.7875 18.0193 56.6392C18.9239 56.3956 19.77 56.5731 20.4184 57.1422C21.2936 57.9106 21.5991 59.0456 21.2085 60.0784C20.9698 60.7095 14.8976 66.7766 14.1608 67.1202C13.3675 67.4901 12.789 67.482 11.9965 67.0898ZM63.3257 67.1044C62.9575 66.9222 61.4495 65.5302 59.5858 63.6523C57.0484 61.0955 56.4277 60.3874 56.275 59.8753C55.9118 58.6575 56.4663 57.4183 57.6395 56.8257C59.2111 56.0319 59.7376 56.3326 63.5846 60.2217C66.126 62.7909 66.7529 63.5077 66.9054 64.019C67.2685 65.2368 66.714 66.476 65.5409 67.0686C64.7059 67.4903 64.1244 67.4997 63.3257 67.1044ZM37.7617 58.6601C29.2856 58.07 22.2249 52.3186 20.0008 44.1928C19.1309 41.0144 19.1309 37.356 20.0008 34.1776C21.7306 27.8579 26.5504 22.7418 32.7217 20.6746C36.1671 19.5204 40.3219 19.4048 43.8326 20.3654C50.1534 22.0948 55.2705 26.9137 57.3381 33.0839C58.4924 36.5287 58.608 40.6827 57.6473 44.1928C55.9169 50.5148 51.0981 55.6285 44.9212 57.6976C42.8783 58.3819 39.7692 58.7999 37.7617 58.6601ZM42.8151 52.7848C47.7146 51.3154 51.0695 47.8967 52.5124 42.903C52.8157 41.8534 52.8632 41.35 52.8632 39.1852C52.8632 37.0204 52.8157 36.517 52.5124 35.4674C51.0706 30.4775 47.7557 27.0959 42.8151 25.575C41.5798 25.1947 41.2818 25.1641 38.8241 25.1641C36.3663 25.1641 36.0683 25.1947 34.8331 25.575C29.8924 27.0959 26.5775 30.4775 25.1357 35.4674C24.8325 36.517 24.785 37.0204 24.785 39.1852C24.785 41.35 24.8325 41.8534 25.1357 42.903C26.6928 48.2918 30.4564 51.8284 35.9575 53.0721C36.642 53.2268 37.5959 53.2756 39.2035 53.2382C41.1252 53.1934 41.6882 53.1227 42.8151 52.7848ZM2.041 41.7487C1.20309 41.5519 0.652134 41.1054 0.26791 40.3118C-0.348139 39.0395 0.125433 37.615 1.40915 36.8791C1.99713 36.5421 2.16373 36.5279 6.08582 36.4806C10.3827 36.4288 11.3592 36.5249 12.1328 37.0757C13.1089 37.7705 13.4449 39.2739 12.8741 40.3924C12.5061 41.1138 11.9137 41.5526 11.0342 41.7553C10.2146 41.9442 2.85027 41.9389 2.041 41.7487ZM66.545 41.7539C65.3188 41.4549 64.4739 40.4068 64.4739 39.1851C64.4739 38.4183 64.9316 37.4911 65.5153 37.0756C66.2889 36.5249 67.2654 36.4288 71.5623 36.4805C75.4844 36.5278 75.651 36.542 76.239 36.8791C77.1652 37.41 77.6023 38.1494 77.6023 39.1851C77.6023 40.2208 77.1652 40.9602 76.239 41.4911C75.646 41.8311 75.5125 41.8414 71.3796 41.8686C69.0423 41.884 66.8667 41.8324 66.545 41.7539ZM17.8792 21.7143C17.4922 21.5978 16.4977 20.7036 14.215 18.4197C12.4918 16.6957 10.9665 15.0555 10.8254 14.775C10.0458 13.2252 11.0478 11.2902 12.7749 11.01C13.9073 10.8263 14.397 11.1797 17.9124 14.7178C21.4299 18.2581 21.5312 18.4065 21.3196 19.7102C21.0749 21.2175 19.424 22.1793 17.8792 21.7143ZM58.0393 21.7362C56.7252 21.3198 55.9367 19.6222 56.4396 18.2919C56.5284 18.057 58.046 16.4136 59.8121 14.6399C63.2536 11.1837 63.7499 10.8278 64.8732 11.01C66.6025 11.2906 67.6067 13.2343 66.8183 14.775C66.5229 15.3524 61.2183 20.7713 60.3797 21.3523C59.77 21.7748 58.7098 21.9487 58.0393 21.7362ZM37.5841 13.2324C36.2245 12.5143 36.0554 11.7319 36.119 6.45286C36.1663 2.53149 36.1805 2.36493 36.5176 1.77705C37.0487 0.850976 37.7882 0.41394 38.8241 0.41394C39.86 0.41394 40.5995 0.850976 41.1305 1.77705C41.4677 2.36493 41.4819 2.53149 41.5291 6.45286C41.5809 10.749 41.4848 11.7253 40.934 12.4988C40.2399 13.4732 38.6849 13.8138 37.5841 13.2324Z" fill="#E2FC1B"/>
</g>
</svg>
